# xmcd
#
# Track frame offsets:
#	150
#	10548
#	26688
#	43934
#	60195
#	77813
#	93190
#	111737
#	128964
#	148593
#	168319
#	188975
#	207524
#	225427
#	241494
#	259798
#	278457
#	297908
#	317636
#	339929
#
# Disc length: 4787 seconds
#
# Revision: 0
# Processed by: cddbd v1.5.2PL0 Copyright (c) Steve Scherf et al.
# Submitted via: VUPlayer 2.49
#
DISCID=1712b114
DTITLE=illuZion - Optikal illuZion
DYEAR=2009
DGENRE=Hip-Hop
TTITLE0=Break Bread
TTITLE1=Get'Cha Money Up
TTITLE2=Crank Dat Pistol
TTITLE3=Im Hot (remix)
TTITLE4=Time Out
TTITLE5=My Body
TTITLE6=Beat it up
TTITLE7=Girl its on
TTITLE8=Blood Walk
TTITLE9=We Ride
TTITLE10=Like What
TTITLE11=My Girl
TTITLE12=Let Me Know
TTITLE13=Move
TTITLE14=I get'em (I get bitches)
TTITLE15=Kc Hat
TTITLE16=Sean Paul Video
TTITLE17=Ball Till I Fall
TTITLE18=They Like Me
TTITLE19=Top 8 Me
EXTD=
EXTT0=
EXTT1=
EXTT2=
EXTT3=
EXTT4=
EXTT5=
EXTT6=
EXTT7=
EXTT8=
EXTT9=
EXTT10=
EXTT11=
EXTT12=
EXTT13=
EXTT14=
EXTT15=
EXTT16=
EXTT17=
EXTT18=
EXTT19=
PLAYORDER=
